<svg id="visual" viewBox="0 0 900 600" width="900" height="600" xmlns="http://www.w3.org/2000/svg" xmlns:xlink="http://www.w3.org/1999/xlink" version="1.1"><rect x="0" y="0" width="900" height="600" fill="#ffffff"></rect><path d="M0 380L21.5 378.5C43 377 86 374 128.8 374.8C171.7 375.7 214.3 380.3 257.2 380.3C300 380.3 343 375.7 385.8 381.2C428.7 386.7 471.3 402.3 514.2 408.8C557 415.3 600 412.7 642.8 415.5C685.7 418.3 728.3 426.7 771.2 420C814 413.3 857 391.7 878.5 380.8L900 370L900 0L878.5 0C857 0 814 0 771.2 0C728.3 0 685.7 0 642.8 0C600 0 557 0 514.2 0C471.3 0 428.7 0 385.8 0C343 0 300 0 257.2 0C214.3 0 171.7 0 128.8 0C86 0 43 0 21.5 0L0 0Z" fill="#35bcbf"></path><path d="M0 303L21.5 307C43 311 86 319 128.8 324.7C171.7 330.3 214.3 333.7 257.2 339.5C300 345.3 343 353.7 385.8 348.2C428.7 342.7 471.3 323.3 514.2 325.2C557 327 600 350 642.8 355.5C685.7 361 728.3 349 771.2 348.3C814 347.7 857 358.3 878.5 363.7L900 369L900 0L878.5 0C857 0 814 0 771.2 0C728.3 0 685.7 0 642.8 0C600 0 557 0 514.2 0C471.3 0 428.7 0 385.8 0C343 0 300 0 257.2 0C214.3 0 171.7 0 128.8 0C86 0 43 0 21.5 0L0 0Z" fill="#49c8c4"></path><path d="M0 299L21.5 292.8C43 286.7 86 274.3 128.8 265C171.7 255.7 214.3 249.3 257.2 246.8C300 244.3 343 245.7 385.8 248.7C428.7 251.7 471.3 256.3 514.2 264.7C557 273 600 285 642.8 282C685.7 279 728.3 261 771.2 258.7C814 256.3 857 269.7 878.5 276.3L900 283L900 0L878.5 0C857 0 814 0 771.2 0C728.3 0 685.7 0 642.8 0C600 0 557 0 514.2 0C471.3 0 428.7 0 385.8 0C343 0 300 0 257.2 0C214.3 0 171.7 0 128.8 0C86 0 43 0 21.5 0L0 0Z" fill="#5bd3c9"></path><path d="M0 200L21.5 202C43 204 86 208 128.8 210.7C171.7 213.3 214.3 214.7 257.2 210.3C300 206 343 196 385.8 198.8C428.7 201.7 471.3 217.3 514.2 216.7C557 216 600 199 642.8 194C685.7 189 728.3 196 771.2 204.3C814 212.7 857 222.3 878.5 227.2L900 232L900 0L878.5 0C857 0 814 0 771.2 0C728.3 0 685.7 0 642.8 0C600 0 557 0 514.2 0C471.3 0 428.7 0 385.8 0C343 0 300 0 257.2 0C214.3 0 171.7 0 128.8 0C86 0 43 0 21.5 0L0 0Z" fill="#6ddfce"></path><path d="M0 135L21.5 133.2C43 131.3 86 127.7 128.8 132.5C171.7 137.3 214.3 150.7 257.2 154C300 157.3 343 150.7 385.8 149.3C428.7 148 471.3 152 514.2 155.7C557 159.3 600 162.7 642.8 158C685.7 153.3 728.3 140.7 771.2 136.2C814 131.7 857 135.3 878.5 137.2L900 139L900 0L878.5 0C857 0 814 0 771.2 0C728.3 0 685.7 0 642.8 0C600 0 557 0 514.2 0C471.3 0 428.7 0 385.8 0C343 0 300 0 257.2 0C214.3 0 171.7 0 128.8 0C86 0 43 0 21.5 0L0 0Z" fill="#7eead3"></path><path d="M0 59L21.5 58.7C43 58.3 86 57.7 128.8 63.5C171.7 69.3 214.3 81.7 257.2 84.5C300 87.3 343 80.7 385.8 77.8C428.7 75 471.3 76 514.2 79.2C557 82.3 600 87.7 642.8 88.8C685.7 90 728.3 87 771.2 84.5C814 82 857 80 878.5 79L900 78L900 0L878.5 0C857 0 814 0 771.2 0C728.3 0 685.7 0 642.8 0C600 0 557 0 514.2 0C471.3 0 428.7 0 385.8 0C343 0 300 0 257.2 0C214.3 0 171.7 0 128.8 0C86 0 43 0 21.5 0L0 0Z" fill="#90f6d7"></path></svg>